<svg width="251" height="81" viewBox="0 0 251 81" fill="none" xmlns="http://www.w3.org/2000/svg">
<path fill-rule="evenodd" clip-rule="evenodd" d="M0.00756836 73.7312C0.172928 71.1676 2.04163 65.6931 8.19355 64.3042C14.3455 62.9152 18.8769 56.674 20.3737 53.727C21.7907 51.8303 25.5077 47.9257 29.0394 47.481C32.5711 47.0362 37.6242 40.9309 39.7093 37.9338C40.4449 36.8764 40.8755 35.7424 41.2695 34.7047C41.9924 32.801 42.5921 31.2218 44.7256 31.0363C46.8754 31.2155 52.1245 30.4631 55.9225 26.0202C59.7205 21.5772 64.4322 14.0771 66.3133 10.8824C68.2242 7.29943 72.6553 0.223165 75.0917 0.581468C77.5562 0.943894 77.8504 1.42286 80.9582 6.48176C81.6909 7.67452 82.5801 9.12189 83.691 10.8824C86.4141 15.1979 88.6372 18.4376 90.217 20.6231V25.9399C86.4518 21.6968 83.1546 17.0661 81.9687 12.6613C79.0029 1.64544 74.4835 8.1854 74.4129 10.8824C74.3423 13.5793 74.6248 16.2627 76.8138 18.5223C79.0029 20.782 83.4516 25.5132 84.0871 31.0917C80.9565 25.0424 73.9045 14.582 70.741 21.1351C69.9159 22.844 69.1739 24.2211 68.5482 25.3822C66.1749 29.7865 65.4753 31.0846 68.2694 35.6111C68.5245 35.8138 69.1749 36.0976 69.7362 35.6111C70.4377 35.0029 73.3539 33.1118 76.0716 43.3033C76.2819 44.6622 77.149 47.2829 78.9349 46.8946C79.3114 46.8128 79.67 46.7033 80.0206 46.5963C81.7489 46.0687 83.2845 45.6 85.8264 48.7873C88.8838 52.6213 92.2325 56.6979 94.8531 59.173C96.9497 61.1531 98.1209 61.8422 98.4445 61.9393C100.24 62.8775 104.02 65.2297 104.777 67.1321C102.796 65.8703 98.3571 63.2496 96.4547 62.8614C94.5523 62.4731 88.5765 55.7758 85.8264 52.4757C84.6616 50.7124 81.8177 47.6226 79.76 49.3697C77.7022 51.1168 75.4083 47.7035 74.5186 45.7784C73.37 41.8312 69.8693 35.1889 65.055 40.1973C60.2407 45.2057 58.3254 40.4723 57.9695 37.4796C57.0636 34.7133 54.3879 30.8405 50.9325 37.4796C50.5442 38.8223 48.8359 41.663 45.1087 42.2842C41.3816 42.9054 40.1586 47.1373 40.013 49.1756C39.7552 50.2845 38.767 52.8344 36.8763 54.163C34.5129 55.8238 32.916 57.9317 32.4689 61.5726C32.4111 62.0433 32.4056 62.5205 32.3999 63.0095C32.362 66.3032 32.3179 70.1379 16.2444 76.2002C20.8861 72.538 30.0927 63.6933 29.7861 57.6123C29.4795 51.5314 26.8052 56.2284 25.5064 59.337C25.2722 60.8274 23.0919 63.9999 16.2444 64.7664C9.39695 65.5329 2.56674 71.0623 0.00756836 73.7312ZM116.168 52.9036C116.407 53.2403 116.636 53.5717 116.862 53.8998C118.92 56.8819 120.795 59.5996 128.433 63.7157C138.602 69.1954 129.967 74.3841 124.378 76.2935C128.736 75.2833 130.48 76.0384 130.808 76.5422C133.546 80.247 136.719 77.0725 138.243 75.5478C138.414 75.3768 138.564 75.2265 138.69 75.109C139.694 74.1774 141.019 73.8251 141.557 73.7653C149.869 72.1888 152.784 68.8088 153.202 67.3159C155.991 61.6762 158.844 64.0567 161.536 66.3034C161.957 66.6545 162.374 67.0024 162.786 67.3159C169.146 72.153 181.561 81.5584 180.343 80.4835C178.82 79.1399 166.369 67.6742 161.353 62.4788C157.193 58.1699 155.374 59.1599 151.706 61.1563C150.951 61.567 150.118 62.0203 149.171 62.4788C144.728 64.6286 140.333 64.5689 138.69 64.2703C131.477 62.5354 126.008 57.845 121.431 52.9036H116.168Z" fill="#5E5D65"/>
<path d="M98.5544 47.123H105.715V50.2871H94.4412V33.2246H98.5544V47.123ZM120.152 43.7012C120.152 45.0371 119.874 46.2246 119.32 47.2637C118.773 48.2949 117.999 49.0879 116.999 49.6426C115.999 50.1973 114.87 50.4746 113.613 50.4746C112.331 50.4746 111.191 50.2012 110.191 49.6543C109.191 49.1074 108.413 48.3184 107.859 47.2871C107.304 46.248 107.027 45.0566 107.027 43.7129V43.2324C107.027 41.8965 107.296 40.7129 107.835 39.6816C108.374 38.6504 109.144 37.8535 110.144 37.291C111.152 36.7285 112.3 36.4473 113.589 36.4473C114.847 36.4473 115.976 36.7285 116.976 37.291C117.976 37.8457 118.749 38.6309 119.296 39.6465C119.851 40.6543 120.136 41.8105 120.152 43.1152V43.7012ZM116.167 43.2207C116.167 42.0176 115.941 41.0918 115.488 40.4434C115.034 39.7871 114.402 39.459 113.589 39.459C111.87 39.459 111.011 40.7363 111.011 43.291V43.7012C111.011 44.873 111.226 45.7949 111.656 46.4668C112.085 47.1387 112.738 47.4746 113.613 47.4746C114.394 47.4746 115.011 47.1465 115.464 46.4902C115.917 45.834 116.152 44.9355 116.167 43.7949V43.2207ZM134.495 48.6699C133.893 49.2246 133.05 49.666 131.964 49.9941C130.878 50.3145 129.714 50.4746 128.471 50.4746C126.511 50.4746 124.952 49.9316 123.796 48.8457C122.647 47.752 122.03 46.2207 121.944 44.252L121.932 43.1387C121.932 41.7871 122.194 40.6074 122.718 39.5996C123.249 38.584 123.999 37.8027 124.968 37.2559C125.936 36.709 127.042 36.4355 128.284 36.4355C130.175 36.4355 131.636 36.8379 132.667 37.6426C133.706 38.4395 134.307 39.666 134.471 41.3223H130.698C130.604 40.666 130.386 40.1973 130.042 39.916C129.698 39.627 129.163 39.4824 128.436 39.4824C127.647 39.4824 127.022 39.7949 126.561 40.4199C126.108 41.0449 125.882 41.9434 125.882 43.1152V43.7949C125.882 45.0762 126.112 46.0059 126.573 46.584C127.034 47.1543 127.772 47.4395 128.788 47.4395C129.561 47.4395 130.136 47.3184 130.511 47.0762V45.4004H128.167V42.7637H134.495V48.6699ZM136.487 50.2871V36.6348H141.971C143.916 36.6348 145.397 36.959 146.412 37.6074C147.436 38.248 147.948 39.1855 147.948 40.4199C147.948 41.9277 147.272 42.9316 145.92 43.4316C146.647 43.6113 147.213 43.9668 147.619 44.498C148.034 45.0215 148.241 45.6465 148.241 46.373C148.241 47.6934 147.787 48.6738 146.881 49.3145C145.983 49.9473 144.58 50.2715 142.674 50.2871H136.487ZM140.448 44.7793V47.252H142.534C143.073 47.252 143.498 47.1465 143.811 46.9355C144.123 46.7168 144.28 46.4238 144.28 46.0566C144.28 45.2363 143.799 44.8105 142.838 44.7793H140.448ZM140.448 42.2832H142.323C142.924 42.2754 143.35 42.1699 143.6 41.9668C143.858 41.7559 143.987 41.4434 143.987 41.0293C143.987 40.5371 143.854 40.1895 143.588 39.9863C143.33 39.7832 142.92 39.6816 142.358 39.6816H140.448V42.2832ZM163.123 43.7012C163.123 45.0371 162.846 46.2246 162.291 47.2637C161.744 48.2949 160.971 49.0879 159.971 49.6426C158.971 50.1973 157.842 50.4746 156.584 50.4746C155.303 50.4746 154.162 50.2012 153.162 49.6543C152.162 49.1074 151.385 48.3184 150.83 47.2871C150.275 46.248 149.998 45.0566 149.998 43.7129V43.2324C149.998 41.8965 150.267 40.7129 150.806 39.6816C151.346 38.6504 152.115 37.8535 153.115 37.291C154.123 36.7285 155.271 36.4473 156.56 36.4473C157.818 36.4473 158.947 36.7285 159.947 37.291C160.947 37.8457 161.721 38.6309 162.267 39.6465C162.822 40.6543 163.107 41.8105 163.123 43.1152V43.7012ZM159.139 43.2207C159.139 42.0176 158.912 41.0918 158.459 40.4434C158.006 39.7871 157.373 39.459 156.56 39.459C154.842 39.459 153.982 40.7363 153.982 43.291V43.7012C153.982 44.873 154.197 45.7949 154.627 46.4668C155.056 47.1387 155.709 47.4746 156.584 47.4746C157.365 47.4746 157.982 47.1465 158.435 46.4902C158.889 45.834 159.123 44.9355 159.139 43.7949V43.2207ZM177.853 43.7012C177.853 45.0371 177.576 46.2246 177.021 47.2637C176.474 48.2949 175.701 49.0879 174.701 49.6426C173.701 50.1973 172.572 50.4746 171.314 50.4746C170.033 50.4746 168.892 50.2012 167.892 49.6543C166.892 49.1074 166.115 48.3184 165.56 47.2871C165.005 46.248 164.728 45.0566 164.728 43.7129V43.2324C164.728 41.8965 164.997 40.7129 165.536 39.6816C166.076 38.6504 166.845 37.8535 167.845 37.291C168.853 36.7285 170.001 36.4473 171.29 36.4473C172.548 36.4473 173.677 36.7285 174.677 37.291C175.677 37.8457 176.451 38.6309 176.997 39.6465C177.552 40.6543 177.837 41.8105 177.853 43.1152V43.7012ZM173.869 43.2207C173.869 42.0176 173.642 41.0918 173.189 40.4434C172.736 39.7871 172.103 39.459 171.29 39.459C169.572 39.459 168.712 40.7363 168.712 43.291V43.7012C168.712 44.873 168.927 45.7949 169.357 46.4668C169.786 47.1387 170.439 47.4746 171.314 47.4746C172.095 47.4746 172.712 47.1465 173.165 46.4902C173.619 45.834 173.853 44.9355 173.869 43.7949V43.2207ZM185.153 45.6465L183.864 46.9238L183.817 46.7715V50.2871H179.856V36.6348H183.817V42.0371L187.45 36.6348H192.431L187.837 42.7168L192.442 50.2871H187.79L185.153 45.6465Z" fill="#5E5D65"/>
<path d="M94.4412 27.2871V10.2246H100.57C102.765 10.2246 104.433 10.627 105.574 11.4316C106.722 12.2363 107.297 13.4043 107.297 14.9355C107.297 15.8184 107.094 16.5723 106.687 17.1973C106.281 17.8223 105.683 18.2832 104.894 18.5801C105.785 18.8145 106.469 19.252 106.945 19.8926C107.422 20.5332 107.66 21.3145 107.66 22.2363C107.66 23.9082 107.129 25.166 106.066 26.0098C105.011 26.8457 103.445 27.2715 101.367 27.2871H94.4412ZM98.5544 20.0332V24.123H101.25C101.992 24.123 102.562 23.9551 102.961 23.6191C103.359 23.2754 103.558 22.7949 103.558 22.1777C103.558 20.7559 102.851 20.041 101.437 20.0332H98.5544ZM98.5544 17.3379H100.699C101.597 17.3301 102.238 17.166 102.621 16.8457C103.004 16.5254 103.195 16.0527 103.195 15.4277C103.195 14.709 102.988 14.1934 102.574 13.8809C102.16 13.5605 101.492 13.4004 100.57 13.4004H98.5544V17.3379ZM118.64 24.8965H113.753L112.945 27.2871H108.984L114.269 13.6348H118.066L123.456 27.2871H119.484L118.64 24.8965ZM114.656 22.2012H117.691L116.202 17.9824L116.144 17.7246L116.097 17.959L114.656 22.2012ZM136.757 22.5176C136.71 24.0254 136.116 25.2285 134.975 26.127C133.835 27.0254 132.358 27.4746 130.546 27.4746C128.538 27.4746 126.975 26.8809 125.858 25.6934C124.749 24.5059 124.194 22.8184 124.194 20.6309V20.2441C124.194 18.8691 124.452 17.666 124.968 16.6348C125.483 15.5957 126.214 14.8027 127.159 14.2559C128.104 13.709 129.198 13.4355 130.44 13.4355C132.292 13.4355 133.776 13.8926 134.893 14.8066C136.018 15.7129 136.647 16.9512 136.78 18.5215H132.831C132.846 17.8809 132.643 17.3809 132.221 17.0215C131.8 16.6621 131.206 16.4824 130.44 16.4824C129.034 16.4824 128.28 17.5371 128.179 19.6465L128.167 20.6895C128.167 22.0332 128.343 22.9941 128.694 23.5723C129.046 24.1504 129.663 24.4395 130.546 24.4395C132.085 24.4395 132.839 23.7988 132.807 22.5176H136.757ZM143.963 22.6465L142.674 23.9238L142.627 23.7715V27.2871H138.666V13.6348H142.627V19.0371L146.26 13.6348H151.241L146.647 19.7168L151.252 27.2871H146.6L143.963 22.6465ZM164.318 22.5176C164.271 24.0254 163.678 25.2285 162.537 26.127C161.396 27.0254 159.92 27.4746 158.107 27.4746C156.099 27.4746 154.537 26.8809 153.42 25.6934C152.31 24.5059 151.756 22.8184 151.756 20.6309V20.2441C151.756 18.8691 152.014 17.666 152.529 16.6348C153.045 15.5957 153.775 14.8027 154.721 14.2559C155.666 13.709 156.76 13.4355 158.002 13.4355C159.853 13.4355 161.338 13.8926 162.455 14.8066C163.58 15.7129 164.209 16.9512 164.342 18.5215H160.392C160.408 17.8809 160.205 17.3809 159.783 17.0215C159.361 16.6621 158.767 16.4824 158.002 16.4824C156.596 16.4824 155.842 17.5371 155.74 19.6465L155.728 20.6895C155.728 22.0332 155.904 22.9941 156.256 23.5723C156.607 24.1504 157.224 24.4395 158.107 24.4395C159.646 24.4395 160.4 23.7988 160.369 22.5176H164.318ZM178.954 20.7012C178.954 22.0371 178.677 23.2246 178.122 24.2637C177.576 25.2949 176.802 26.0879 175.802 26.6426C174.802 27.1973 173.673 27.4746 172.415 27.4746C171.134 27.4746 169.994 27.2012 168.994 26.6543C167.994 26.1074 167.216 25.3184 166.661 24.2871C166.107 23.248 165.829 22.0566 165.829 20.7129V20.2324C165.829 18.8965 166.099 17.7129 166.638 16.6816C167.177 15.6504 167.947 14.8535 168.947 14.291C169.954 13.7285 171.103 13.4473 172.392 13.4473C173.65 13.4473 174.779 13.7285 175.779 14.291C176.779 14.8457 177.552 15.6309 178.099 16.6465C178.654 17.6543 178.939 18.8105 178.954 20.1152V20.7012ZM174.97 20.2207C174.97 19.0176 174.744 18.0918 174.29 17.4434C173.837 16.7871 173.204 16.459 172.392 16.459C170.673 16.459 169.814 17.7363 169.814 20.291V20.7012C169.814 21.873 170.029 22.7949 170.458 23.4668C170.888 24.1387 171.54 24.4746 172.415 24.4746C173.197 24.4746 173.814 24.1465 174.267 23.4902C174.72 22.834 174.954 21.9355 174.97 20.7949V20.2207ZM192.806 13.6348V22.377C192.806 23.9863 192.29 25.2402 191.259 26.1387C190.227 27.0293 188.778 27.4746 186.911 27.4746C185.075 27.4746 183.63 27.0254 182.575 26.127C181.528 25.2285 180.997 24.0059 180.981 22.459V13.6348H184.954V22.3887C184.954 23.123 185.118 23.6504 185.446 23.9707C185.774 24.2832 186.263 24.4395 186.911 24.4395C187.575 24.4395 188.059 24.2832 188.364 23.9707C188.677 23.6504 188.833 23.123 188.833 22.3887V13.6348H192.806ZM207.758 27.2871H203.809L199.204 19.3418V27.2871H195.243V13.6348H199.204L203.809 21.5801V13.6348H207.758V27.2871ZM222.055 16.6816H217.707V27.2871H213.734V16.6816H209.516V13.6348H222.055V16.6816ZM229.355 22.7637H227.796V27.2871H223.835V13.6348H229.871C231.644 13.6348 233.031 13.9941 234.031 14.7129C235.031 15.4238 235.531 16.4199 235.531 17.7012C235.531 18.6934 235.339 19.5059 234.956 20.1387C234.574 20.7715 233.933 21.2988 233.035 21.7207L235.999 27.1348V27.2871H231.734L229.355 22.7637ZM227.796 19.7168H229.871C231.011 19.7168 231.581 19.2012 231.581 18.1699C231.581 17.1777 230.972 16.6816 229.753 16.6816H227.796V19.7168ZM243.405 19.0488L245.843 13.6348H250.097L245.362 22.4941V27.2871H241.401V22.3535L236.761 13.6348H241.003L243.405 19.0488Z" fill="#5E5D65"/>
</svg>
